<svg width="22" height="14" viewBox="0 0 22 14" fill="none" xmlns="http://www.w3.org/2000/svg">
<path opacity="0.35" fill-rule="evenodd" clip-rule="evenodd" d="M2.58248 0.171509H19.222C20.4312 0.171509 21.4114 1.49702 21.4114 3.13212V10.8297C21.4114 12.4648 20.4312 13.7903 19.222 13.7903H2.58248C1.3733 13.7903 0.393066 12.4648 0.393066 10.8297V3.13212C0.393066 1.49702 1.3733 0.171509 2.58248 0.171509ZM2.58248 1.35575C1.85698 1.35575 1.26884 2.15106 1.26884 3.13212V10.8297C1.26884 11.8108 1.85698 12.6061 2.58248 12.6061H19.222C19.9475 12.6061 20.5356 11.8108 20.5356 10.8297V3.13212C20.5356 2.15106 19.9475 1.35575 19.222 1.35575H2.58248Z" fill="white"/>
</svg>
