<svg width="34" height="40" viewBox="0 0 34 40" fill="none" xmlns="http://www.w3.org/2000/svg">
<g clip-path="url(#clip0_2902_707)">
<path d="M27.3179 6.93928C27.0008 6.38192 26.6038 5.93365 26.155 5.62632C25.7063 5.31898 25.2169 5.16012 24.7215 5.161H6.49353L6.44618 4.58145C6.34928 3.37681 5.95393 2.26611 5.33511 1.45993C4.71628 0.653757 3.91698 0.208145 3.08875 0.207581L2.83847 0.207581C2.53946 0.207581 2.2527 0.38154 2.04127 0.691188C1.82984 1.00084 1.71106 1.42081 1.71106 1.85872C1.71106 2.29663 1.82984 2.7166 2.04127 3.02625C2.2527 3.3359 2.53946 3.50986 2.83847 3.50986H3.08875C3.36489 3.50991 3.63142 3.65839 3.83777 3.92713C4.04413 4.19587 4.17596 4.56618 4.20827 4.96782L5.75959 24.2862C5.92064 26.2953 6.57975 28.1478 7.61182 29.4922C8.64388 30.8366 9.97706 31.5793 11.3583 31.5792H23.1318C23.4308 31.5792 23.7176 31.4053 23.929 31.0956C24.1405 30.786 24.2592 30.366 24.2592 29.9281C24.2592 29.4902 24.1405 29.0702 23.929 28.7606C23.7176 28.4509 23.4308 28.277 23.1318 28.277H11.3583C10.6605 28.2741 9.98038 27.9552 9.41119 27.364C8.842 26.7728 8.41161 25.9382 8.17901 24.9747H21.6177C22.9394 24.9748 24.219 24.2948 25.2331 23.0535C26.2472 21.8122 26.9312 20.0885 27.1657 18.1835L28.0507 10.9945C28.1391 10.2812 28.1192 9.54819 27.9926 8.8474C27.8659 8.14661 27.6356 7.49518 27.3179 6.93928ZM25.8376 10.4083L24.9515 17.5974C24.8107 18.7416 24.3996 19.7769 23.7901 20.5219C23.1806 21.2669 22.4116 21.6742 21.6177 21.6724H7.82049L6.7596 8.46328H24.7215C24.8871 8.46183 25.0509 8.51384 25.2012 8.61561C25.3516 8.71738 25.4848 8.8664 25.5913 9.05209C25.6979 9.23778 25.7752 9.45557 25.8177 9.68998C25.8603 9.92438 25.8671 10.1696 25.8376 10.4083Z" fill="#E2E2E2"/>
<path d="M8.8594 39.4222C7.34097 39.4222 6.11004 37.9591 6.11004 36.1543C6.11004 34.3495 7.34097 32.8864 8.8594 32.8864C10.3778 32.8864 11.6088 34.3495 11.6088 36.1543C11.6088 37.9591 10.3778 39.4222 8.8594 39.4222Z" fill="#E2E2E2"/>
<path d="M20.9566 39.4222C19.4382 39.4222 18.2072 37.9591 18.2072 36.1543C18.2072 34.3495 19.4382 32.8864 20.9566 32.8864C22.475 32.8864 23.706 34.3495 23.706 36.1543C23.706 37.9591 22.475 39.4222 20.9566 39.4222Z" fill="#E2E2E2"/>
</g>
<defs>
<clipPath id="clip0_2902_707">
<rect width="32.9923" height="39.2146" fill="white" transform="translate(0.611328 0.207581)"/>
</clipPath>
</defs>
</svg>
