<svg width="30" height="30" viewBox="0 0 30 30" fill="none" xmlns="http://www.w3.org/2000/svg">
<path d="M24.2844 5.14989C23.996 4.7235 23.635 4.38057 23.227 4.14545C22.8189 3.91033 22.3739 3.7888 21.9234 3.78947H5.34871L5.30566 3.34611C5.21754 2.42453 4.85806 1.57482 4.29535 0.958077C3.73265 0.341335 3.00585 0.000431739 2.25274 0L2.02516 0C1.75327 0 1.49252 0.133082 1.30026 0.36997C1.10801 0.606858 1 0.928148 1 1.26316C1 1.59817 1.10801 1.91946 1.30026 2.15635C1.49252 2.39323 1.75327 2.52632 2.02516 2.52632H2.25274C2.50384 2.52636 2.74619 2.63994 2.93383 2.84554C3.12147 3.05113 3.24134 3.33442 3.27072 3.64168L4.68134 18.4206C4.82778 19.9576 5.42711 21.3749 6.36557 22.4034C7.30403 23.4319 8.5163 24 9.77226 24H20.478C20.7499 24 21.0106 23.8669 21.2029 23.63C21.3951 23.3931 21.5031 23.0719 21.5031 22.7368C21.5031 22.4018 21.3951 22.0805 21.2029 21.8437C21.0106 21.6068 20.7499 21.4737 20.478 21.4737H9.77226C9.13775 21.4715 8.51931 21.2275 8.00175 20.7752C7.48418 20.3229 7.09282 19.6845 6.88132 18.9474H19.1012C20.303 18.9475 21.4666 18.4272 22.3887 17.4776C23.3108 16.528 23.9328 15.2093 24.146 13.752L24.9507 8.25221C25.031 7.70653 25.013 7.14577 24.8978 6.60965C24.7827 6.07353 24.5732 5.57517 24.2844 5.14989ZM22.9383 7.80379L22.1326 13.3036C22.0046 14.1789 21.6307 14.9709 21.0765 15.5409C20.5223 16.1108 19.8231 16.4224 19.1012 16.4211H6.55532L5.59065 6.31579H21.9234C22.074 6.31468 22.223 6.35447 22.3597 6.43232C22.4964 6.51018 22.6175 6.62418 22.7144 6.76624C22.8113 6.9083 22.8816 7.07491 22.9203 7.25424C22.959 7.43356 22.9651 7.62119 22.9383 7.80379Z" fill="white"/>
<path d="M7.5 30C6.11929 30 5 28.8807 5 27.5C5 26.1193 6.11929 25 7.5 25C8.88071 25 10 26.1193 10 27.5C10 28.8807 8.88071 30 7.5 30Z" fill="white"/>
<path d="M18.5 30C17.1193 30 16 28.8807 16 27.5C16 26.1193 17.1193 25 18.5 25C19.8807 25 21 26.1193 21 27.5C21 28.8807 19.8807 30 18.5 30Z" fill="white"/>
</svg>
