<svg width="27" height="32" viewBox="0 0 27 32" fill="none" xmlns="http://www.w3.org/2000/svg">
<g clip-path="url(#clip0_2902_711)">
<path d="M25.8236 11.884L17.4821 1.96796C16.4497 0.744448 15.0513 0.0573883 13.5934 0.0573883C12.1355 0.0573883 10.7371 0.744448 9.70467 1.96796L1.36311 11.884C1.05565 12.2471 0.811887 12.6792 0.645949 13.1551C0.480012 13.631 0.395202 14.1413 0.396437 14.6565V27.4888C0.396437 28.5288 0.744033 29.5263 1.36276 30.2617C1.98149 30.9971 2.82066 31.4103 3.69567 31.4103H23.4911C24.3661 31.4103 25.2053 30.9971 25.824 30.2617C26.4427 29.5263 26.7903 28.5288 26.7903 27.4888V14.6565C26.7915 14.1413 26.7067 13.631 26.5408 13.1551C26.3748 12.6792 26.1311 12.2471 25.8236 11.884ZM16.8926 28.796H10.2941V23.6536C10.2941 22.6136 10.6417 21.6161 11.2605 20.8807C11.8792 20.1453 12.7184 19.7322 13.5934 19.7322C14.4684 19.7322 15.3076 20.1453 15.9263 20.8807C16.545 21.6161 16.8926 22.6136 16.8926 23.6536V28.796ZM24.5908 27.4888C24.5908 27.8355 24.4749 28.168 24.2687 28.4131C24.0625 28.6582 23.7827 28.796 23.4911 28.796H19.0921V23.6536C19.0921 21.9202 18.5128 20.2578 17.4816 19.0321C16.4503 17.8064 15.0517 17.1179 13.5934 17.1179C12.135 17.1179 10.7364 17.8064 9.70519 19.0321C8.67398 20.2578 8.09465 21.9202 8.09465 23.6536V28.796H3.69567C3.404 28.796 3.12428 28.6582 2.91803 28.4131C2.71179 28.168 2.59593 27.8355 2.59593 27.4888V14.6565C2.59694 14.3101 2.71271 13.9781 2.91815 13.7323L11.2597 3.82019C11.8796 3.08679 12.7187 2.67505 13.5934 2.67505C14.468 2.67505 15.3071 3.08679 15.927 3.82019L24.2686 13.7363C24.4732 13.981 24.5889 14.3114 24.5908 14.6565V27.4888Z" fill="white"/>
</g>
<defs>
<clipPath id="clip0_2902_711">
<rect width="26.3939" height="31.3717" fill="white" transform="translate(0.396423 0.0294495)"/>
</clipPath>
</defs>
</svg>
