<svg width="14" height="17" viewBox="0 0 14 17" fill="none" xmlns="http://www.w3.org/2000/svg">
<g clip-path="url(#clip0_2902_709)">
<path d="M7.40413 16.0505C3.76563 16.0505 0.805664 12.5323 0.805664 8.20757C0.805664 3.88286 3.76563 0.364655 7.40413 0.364655C11.0426 0.364655 14.0026 3.88286 14.0026 8.20757C14.0026 12.5323 11.0426 16.0505 7.40413 16.0505ZM7.40413 2.32538C4.67566 2.32538 2.45528 4.96387 2.45528 8.20757C2.45528 11.4513 4.67566 14.0898 7.40413 14.0898C10.1326 14.0898 12.353 11.4513 12.353 8.20757C12.353 4.96387 10.1326 2.32538 7.40413 2.32538ZM8.50387 11.1487V5.26648C8.50387 4.87041 8.30317 4.5129 7.99469 4.36062C7.68566 4.20834 7.33155 4.29265 7.09565 4.57303L5.44603 6.53376C5.12381 6.91676 5.12381 7.537 5.44603 7.92C5.76826 8.30299 6.29009 8.30299 6.61231 7.92L6.85371 7.63308V11.1487C6.85371 11.6898 7.22267 12.129 7.67852 12.129C8.13436 12.129 8.50332 11.6898 8.50332 11.1487H8.50387Z" fill="#E2E2E2"/>
</g>
<defs>
<clipPath id="clip0_2902_709">
<rect width="13.1969" height="15.6858" fill="white" transform="translate(0.805664 0.364655)"/>
</clipPath>
</defs>
</svg>
