<svg width="14" height="11" viewBox="0 0 14 11" fill="none" xmlns="http://www.w3.org/2000/svg">
<path fill-rule="evenodd" clip-rule="evenodd" d="M12.0921 0.221603H10.9923C10.385 0.221603 9.89258 0.806836 9.89258 1.52876V9.37167C9.89258 10.0936 10.385 10.6788 10.9923 10.6788H12.0921C12.6994 10.6788 13.1918 10.0936 13.1918 9.37167V1.52876C13.1918 0.806836 12.6994 0.221603 12.0921 0.221603ZM6.04347 2.83589H7.14321C7.75059 2.83589 8.24296 3.42112 8.24296 4.14304V9.37165C8.24296 10.0936 7.75059 10.6788 7.14321 10.6788H6.04347C5.4361 10.6788 4.94373 10.0936 4.94373 9.37165V4.14304C4.94373 3.42112 5.4361 2.83589 6.04347 2.83589ZM1.09462 4.79662H2.19436C2.80173 4.79662 3.29411 5.38185 3.29411 6.10377V9.37165C3.29411 10.0936 2.80173 10.6788 2.19436 10.6788H1.09462C0.487245 10.6788 -0.00512695 10.0936 -0.00512695 9.37165V6.10377C-0.00512695 5.38185 0.487245 4.79662 1.09462 4.79662Z" fill="#E2E2E2"/>
</svg>
