<svg width="11" height="10" viewBox="0 0 11 10" fill="none" xmlns="http://www.w3.org/2000/svg">
<path fill-rule="evenodd" clip-rule="evenodd" d="M9.65173 0.13208H8.77597C8.2923 0.13208 7.9002 0.662284 7.9002 1.31632V8.42179C7.9002 9.07583 8.2923 9.60603 8.77597 9.60603H9.65173C10.1354 9.60603 10.5275 9.07583 10.5275 8.42179V1.31632C10.5275 0.662284 10.1354 0.13208 9.65173 0.13208ZM4.83503 2.50057H5.71079C6.19447 2.50057 6.58656 3.03077 6.58656 3.68481V8.42179C6.58656 9.07583 6.19447 9.60603 5.71079 9.60603H4.83503C4.35136 9.60603 3.95927 9.07583 3.95927 8.42179V3.68481C3.95927 3.03077 4.35136 2.50057 4.83503 2.50057ZM0.894093 4.27693H1.76986C2.25353 4.27693 2.64562 4.80714 2.64562 5.46118V8.42179C2.64562 9.07583 2.25353 9.60603 1.76986 9.60603H0.894093C0.410422 9.60603 0.0183296 9.07583 0.0183296 8.42179V5.46118C0.0183296 4.80714 0.410422 4.27693 0.894093 4.27693Z" fill="white"/>
</svg>
