<svg width="29" height="26" viewBox="0 0 29 26" fill="none" xmlns="http://www.w3.org/2000/svg">
<path d="M24.36 5.41667C23.0791 4.26531 21.3812 3.56259 19.573 3.43544C17.7648 3.30829 15.9654 3.76509 14.5 4.72334C12.9626 3.69811 11.049 3.23323 9.14457 3.4223C7.24015 3.61137 5.48637 4.44035 4.23639 5.74231C2.9864 7.04426 2.33308 8.72249 2.40797 10.439C2.48286 12.1556 3.28041 13.7829 4.64 14.9933L12.1438 21.7317C12.7721 22.2861 13.6184 22.5968 14.5 22.5968C15.3816 22.5968 16.2279 22.2861 16.8563 21.7317L24.36 14.9933C25.7708 13.7207 26.5627 11.9993 26.5627 10.205C26.5627 8.41071 25.7708 6.6893 24.36 5.41667V5.41667ZM22.6563 13.4983L15.1525 20.2258C15.0671 20.3031 14.9655 20.3645 14.8535 20.4064C14.7415 20.4483 14.6213 20.4698 14.5 20.4698C14.3787 20.4698 14.2585 20.4483 14.1465 20.4064C14.0345 20.3645 13.9329 20.3031 13.8475 20.2258L6.34375 13.4658C5.39612 12.5974 4.86549 11.4308 4.86549 10.2158C4.86549 9.00092 5.39612 7.8343 6.34375 6.96584C7.3094 6.11108 8.61176 5.63179 9.96875 5.63179C11.3257 5.63179 12.6281 6.11108 13.5938 6.96584C13.7061 7.06738 13.8397 7.14797 13.987 7.20297C14.1342 7.25797 14.2922 7.28629 14.4517 7.28629C14.6112 7.28629 14.7691 7.25797 14.9164 7.20297C15.0636 7.14797 15.1973 7.06738 15.3096 6.96584C16.2752 6.11108 17.5776 5.63179 18.9346 5.63179C20.2916 5.63179 21.5939 6.11108 22.5596 6.96584C23.5202 7.82292 24.0683 8.98321 24.0864 10.1982C24.1044 11.4131 23.5911 12.5861 22.6563 13.4658V13.4983Z" fill="#850437"/>
</svg>
