<svg width="29" height="27" viewBox="0 0 29 27" fill="none" xmlns="http://www.w3.org/2000/svg">
<path d="M24.36 5.625C23.0791 4.42936 21.3812 3.69961 19.573 3.56757C17.7648 3.43553 15.9654 3.9099 14.5 4.905C12.9626 3.84035 11.049 3.35758 9.14457 3.55392C7.24015 3.75026 5.48637 4.61113 4.23639 5.96316C2.9864 7.31519 2.33308 9.05796 2.40797 10.8405C2.48286 12.6231 3.28041 14.313 4.64 15.57L12.1438 22.5675C12.7721 23.1433 13.6184 23.4659 14.5 23.4659C15.3816 23.4659 16.2279 23.1433 16.8563 22.5675L24.36 15.57C25.7708 14.2484 26.5627 12.4608 26.5627 10.5975C26.5627 8.7342 25.7708 6.94658 24.36 5.625V5.625ZM22.6563 14.0175L15.1525 21.0038C15.0671 21.084 14.9655 21.1477 14.8535 21.1912C14.7415 21.2347 14.6213 21.2571 14.5 21.2571C14.3787 21.2571 14.2585 21.2347 14.1465 21.1912C14.0345 21.1477 13.9329 21.084 13.8475 21.0038L6.34375 13.9838C5.39612 13.0819 4.86549 11.8704 4.86549 10.6088C4.86549 9.3471 5.39612 8.13561 6.34375 7.23375C7.3094 6.34611 8.61176 5.84839 9.96875 5.84839C11.3257 5.84839 12.6281 6.34611 13.5938 7.23375C13.7061 7.3392 13.8397 7.42289 13.987 7.48001C14.1342 7.53712 14.2922 7.56653 14.4517 7.56653C14.6112 7.56653 14.7691 7.53712 14.9164 7.48001C15.0636 7.42289 15.1973 7.3392 15.3096 7.23375C16.2752 6.34611 17.5776 5.84839 18.9346 5.84839C20.2916 5.84839 21.5939 6.34611 22.5596 7.23375C23.5202 8.1238 24.0683 9.32872 24.0864 10.5904C24.1044 11.8521 23.5911 13.0702 22.6563 13.9838V14.0175Z" fill="#850437"/>
</svg>
