<svg width="18" height="18" viewBox="0 0 18 18" fill="none" xmlns="http://www.w3.org/2000/svg">
<g clip-path="url(#clip0_2902_824)">
<path d="M18 16.9395L13.3035 12.243C14.5235 10.7509 15.1233 8.84703 14.9789 6.92513C14.8345 5.00323 13.9569 3.21036 12.5277 1.91735C11.0985 0.624341 9.22696 -0.0698723 7.30025 -0.0216984C5.37354 0.0264754 3.53905 0.813351 2.17623 2.17617C0.813412 3.53899 0.0265365 5.37348 -0.0216374 7.30019C-0.0698112 9.2269 0.624402 11.0984 1.91741 12.5276C3.21042 13.9569 5.00329 14.8344 6.92519 14.9788C8.84709 15.1232 10.751 14.5234 12.243 13.3035L16.9395 18L18 16.9395ZM7.50002 13.5C6.31333 13.5 5.15329 13.1481 4.1666 12.4888C3.1799 11.8295 2.41087 10.8924 1.95674 9.79606C1.50262 8.6997 1.3838 7.4933 1.61531 6.32942C1.84682 5.16553 2.41826 4.09643 3.25738 3.25732C4.09649 2.4182 5.16559 1.84676 6.32948 1.61525C7.49336 1.38374 8.69976 1.50256 9.79612 1.95668C10.8925 2.41081 11.8295 3.17984 12.4888 4.16654C13.1481 5.15323 13.5 6.31327 13.5 7.49996C13.4982 9.09071 12.8655 10.6158 11.7407 11.7406C10.6159 12.8655 9.09077 13.4982 7.50002 13.5Z" fill="black"/>
</g>
<defs>
<clipPath id="clip0_2902_824">
<rect width="18" height="18" fill="white"/>
</clipPath>
</defs>
</svg>
