<svg width="27" height="33" viewBox="0 0 27 33" fill="none" xmlns="http://www.w3.org/2000/svg">
<g clip-path="url(#clip0_2902_700)">
<path d="M18.9923 19.1024C18.409 19.1024 17.8495 19.3778 17.4371 19.8681C17.0246 20.3584 16.7928 21.0233 16.7928 21.7167C16.7928 22.41 17.0246 23.075 17.4371 23.5653C17.8495 24.0556 18.409 24.331 18.9923 24.331C19.5757 24.331 20.1351 24.0556 20.5476 23.5653C20.9601 23.075 21.1918 22.41 21.1918 21.7167C21.1918 21.0233 20.9601 20.3584 20.5476 19.8681C20.1351 19.3778 19.5757 19.1024 18.9923 19.1024Z" fill="white"/>
<path d="M9.09466 15.1809C7.92797 15.1809 6.80908 15.7318 5.98411 16.7124C5.15914 17.6929 4.69568 19.0228 4.69568 20.4095C4.69568 21.7963 5.15914 23.1262 5.98411 24.1067C6.80908 25.0873 7.92797 25.6382 9.09466 25.6382C10.2613 25.6382 11.3802 25.0873 12.2052 24.1067C13.0302 23.1262 13.4936 21.7963 13.4936 20.4095C13.4936 19.0228 13.0302 17.6929 12.2052 16.7124C11.3802 15.7318 10.2613 15.1809 9.09466 15.1809ZM9.09466 23.0238C8.51132 23.0238 7.95187 22.7484 7.53938 22.2581C7.1269 21.7679 6.89517 21.1029 6.89517 20.4095C6.89517 19.7162 7.1269 19.0512 7.53938 18.5609C7.95187 18.0707 8.51132 17.7952 9.09466 17.7952C9.678 17.7952 10.2374 18.0707 10.6499 18.5609C11.0624 19.0512 11.2941 19.7162 11.2941 20.4095C11.2941 21.1029 11.0624 21.7679 10.6499 22.2581C10.2374 22.7484 9.678 23.0238 9.09466 23.0238Z" fill="white"/>
<path d="M24.0391 9.56017L15.4193 1.91202C14.4879 1.16447 13.3849 0.777191 12.2613 0.803163C11.1376 0.829135 10.0482 1.26709 9.14195 2.05711C5.58165 5.22392 2.91811 9.60545 1.50643 14.6175C1.49049 14.6844 1.47873 14.7526 1.47124 14.8215C1.35008 15.1038 1.24607 15.396 1.16001 15.6959C0.00468797 19.5928 0.00468797 23.8419 1.16001 27.7387C1.5296 29.0331 2.2313 30.1571 3.16637 30.9527C4.10145 31.7482 5.22284 32.1754 6.3728 32.1739H10.3583C10.8352 32.1649 11.2973 31.9754 11.6774 31.6329C12.0576 31.2904 12.3359 30.8128 12.472 30.2694C12.5834 29.879 12.7949 29.54 13.0768 29.2999C13.3586 29.0598 13.6967 28.9306 14.0435 28.9306C14.3903 28.9306 14.7284 29.0598 15.0103 29.2999C15.2921 29.54 15.5036 29.879 15.615 30.2694C15.7511 30.8128 16.0295 31.2904 16.4096 31.6329C16.7897 31.9754 17.2518 32.1649 17.7288 32.1739H21.1919C22.6497 32.1718 24.0473 31.4826 25.0781 30.2573C26.1089 29.0321 26.6888 27.3709 26.6906 25.6382V15.8437C26.6881 14.6238 26.4474 13.4213 25.9873 12.3309C25.5271 11.2404 24.8602 10.292 24.0391 9.56017ZM10.4583 4.15117C10.9914 3.68744 11.6312 3.42884 12.2916 3.41015C12.952 3.39145 13.6014 3.61356 14.1524 4.0466L22.2795 11.2595H6.3739C5.94578 11.259 5.51909 11.3182 5.10259 11.4359C6.44895 8.59707 8.27193 6.1175 10.4583 4.15117ZM24.4911 25.6382C24.4911 26.6782 24.1435 27.6756 23.5248 28.411C22.906 29.1465 22.0669 29.5596 21.1919 29.5596L17.7101 29.4733C17.4523 28.5512 16.9549 27.7501 16.2895 27.1854C15.6242 26.6207 14.8252 26.3217 14.0077 26.3312C13.1902 26.3408 12.3964 26.6586 11.7405 27.2388C11.0847 27.8189 10.6007 28.6316 10.3583 29.5596H6.3728C5.68272 29.56 5.0099 29.3032 4.44904 28.8253C3.88818 28.3474 3.46751 27.6725 3.24622 26.8956C2.2482 23.5453 2.2482 19.8893 3.24622 16.5391C3.46824 15.7623 3.88922 15.0877 4.45012 14.6097C5.01103 14.1317 5.68373 13.8744 6.3739 13.8738H24.1612C24.3772 14.4989 24.4892 15.1679 24.4911 15.8437V25.6382Z" fill="white"/>
</g>
<defs>
<clipPath id="clip0_2902_700">
<rect width="26.3939" height="31.3717" fill="white" transform="translate(0.296692 0.802246)"/>
</clipPath>
</defs>
</svg>
