<svg width="27" height="33" viewBox="0 0 27 33" fill="none" xmlns="http://www.w3.org/2000/svg">
<g clip-path="url(#clip0_2902_699)">
<path d="M24.5908 13.9734C24.5812 12.9163 24.3027 11.8875 23.7918 11.0222C23.281 10.1569 22.5618 9.49562 21.7288 9.12532C20.8958 8.75502 19.988 8.69305 19.1248 8.94755C18.2616 9.20206 17.4834 9.76112 16.8926 10.5512C16.3217 9.7721 15.5687 9.21243 14.7294 8.94343C15.1209 3.0168 19.0118 2.47694 19.0921 4.82328C18.8004 4.82328 18.5207 4.961 18.3145 5.20614C18.1082 5.45128 17.9924 5.78376 17.9924 6.13044C17.9924 6.47711 18.1082 6.80959 18.3145 7.05473C18.5207 7.29987 18.8004 7.43759 19.0921 7.43759C19.6754 7.43759 20.2349 7.16215 20.6474 6.67188C21.0599 6.1816 21.2916 5.51664 21.2916 4.82328C20.9617 -0.180498 15.7731 -0.388335 13.6044 4.25075C12.9643 2.88478 10.5317 -0.536044 9.30987 1.62468C9.24439 1.77861 9.2052 1.94643 9.19454 2.11845C9.18388 2.29048 9.20197 2.4633 9.24777 2.62698C9.29357 2.79065 9.36617 2.94193 9.46139 3.0721C9.5566 3.20227 9.67256 3.30876 9.80256 3.38541C11.4082 4.33964 12.2792 6.16834 12.4562 8.95127C11.6181 9.21836 10.8657 9.77521 10.2941 10.5512C9.83665 9.92773 9.26097 9.44249 8.6146 9.13557C7.96824 8.82865 7.26973 8.70885 6.57673 8.78605C5.88373 8.86325 5.21612 9.13524 4.62899 9.57958C4.04187 10.0239 3.55207 10.6279 3.20002 11.3415C2.84798 12.0552 2.64379 12.8582 2.6043 13.6842C2.56481 14.5101 2.69116 15.3354 2.97291 16.0919C3.25467 16.8484 3.68376 17.5144 4.22475 18.0349C4.76575 18.5555 5.40314 18.9156 6.08432 19.0856C5.91792 19.7727 5.87232 20.4932 5.95035 21.2022C6.02838 21.9111 6.22836 22.5934 6.53786 23.2065C6.84735 23.8196 7.25973 24.3504 7.74931 24.7659C8.23888 25.1813 8.79518 25.4726 9.38355 25.6214C9.19539 26.3969 9.16146 27.2138 9.28446 28.0076C9.40745 28.8014 9.68399 29.5503 10.0923 30.1953C10.5005 30.8403 11.0293 31.3637 11.6369 31.7241C12.2445 32.0845 12.9143 32.2721 13.5934 32.2721C14.2724 32.2721 14.9422 32.0845 15.5498 31.7241C16.1574 31.3637 16.6862 30.8403 17.0945 30.1953C17.5028 29.5503 17.7793 28.8014 17.9023 28.0076C18.0253 27.2138 17.9914 26.3969 17.8032 25.6214C18.3916 25.4726 18.9479 25.1813 19.4374 24.7659C19.927 24.3504 20.3394 23.8196 20.6489 23.2065C20.9584 22.5934 21.1584 21.9111 21.2364 21.2022C21.3144 20.4932 21.2688 19.7727 21.1024 19.0856C22.0887 18.8376 22.9734 18.1945 23.6084 17.2638C24.2434 16.3332 24.5902 15.1716 24.5908 13.9734ZM13.5934 11.359C14.1767 11.359 14.7362 11.6345 15.1486 12.1248C15.5611 12.615 15.7929 13.28 15.7929 13.9734C15.7929 14.6667 15.5611 15.3317 15.1486 15.8219C14.7362 16.3122 14.1767 16.5877 13.5934 16.5877C13.01 16.5877 12.4506 16.3122 12.0381 15.8219C11.6256 15.3317 11.3939 14.6667 11.3939 13.9734C11.3939 13.28 11.6256 12.615 12.0381 12.1248C12.4506 11.6345 13.01 11.359 13.5934 11.359ZM4.79542 13.9734C4.79542 13.28 5.02715 12.615 5.43963 12.1248C5.85212 11.6345 6.41157 11.359 6.99491 11.359C7.57825 11.359 8.1377 11.6345 8.55018 12.1248C8.96267 12.615 9.1944 13.28 9.1944 13.9734C9.1944 14.6667 8.96267 15.3317 8.55018 15.8219C8.1377 16.3122 7.57825 16.5877 6.99491 16.5877C6.41157 16.5877 5.85212 16.3122 5.43963 15.8219C5.02715 15.3317 4.79542 14.6667 4.79542 13.9734ZM8.09465 20.5091C8.09984 19.8825 8.29508 19.2791 8.64452 18.8098C9.27998 18.4984 9.84503 18.014 10.2941 17.3955C10.7448 18.0148 11.3118 18.4993 11.9493 18.8098C12.1801 19.1285 12.3427 19.5087 12.423 19.9182C12.5034 20.3277 12.4993 20.7542 12.411 21.1614C12.3226 21.5686 12.1527 21.9443 11.9158 22.2565C11.6788 22.5687 11.3818 22.8081 11.0501 22.9544C10.7184 23.1006 10.3619 23.1493 10.011 23.0962C9.66002 23.0432 9.32508 22.89 9.03473 22.6498C8.74438 22.4096 8.50724 22.0894 8.34354 21.7167C8.17985 21.3439 8.09445 20.9296 8.09465 20.5091ZM13.5934 29.6592C13.1748 29.6543 12.7661 29.5075 12.4152 29.236C12.0644 28.9646 11.786 28.5798 11.6128 28.1268C11.4396 27.6739 11.3787 27.1715 11.4373 26.6789C11.4959 26.1862 11.6716 25.7237 11.9438 25.3456C12.5792 25.0342 13.1443 24.5497 13.5934 23.9312C14.044 24.5505 14.611 25.0351 15.2485 25.3456C15.5209 25.7241 15.6967 26.1872 15.7551 26.6805C15.8135 27.1737 15.7522 27.6765 15.5783 28.1297C15.4044 28.5829 15.1252 28.9677 14.7735 29.2386C14.4219 29.5096 14.0124 29.6555 13.5934 29.6592ZM16.8926 23.1234C16.474 23.1185 16.0653 22.9717 15.7145 22.7003C15.3636 22.4288 15.0852 22.044 14.912 21.5911C14.7388 21.1381 14.6779 20.6358 14.7366 20.1431C14.7952 19.6505 14.9709 19.1879 15.243 18.8098C15.8785 18.4984 16.4435 18.014 16.8926 17.3955C17.3412 18.0159 17.9063 18.5021 18.5422 18.815C18.813 19.1933 18.9875 19.6553 19.0454 20.1471C19.1033 20.6389 19.0421 21.1402 18.8691 21.5922C18.696 22.0442 18.4182 22.4283 18.0682 22.6994C17.7182 22.9706 17.3104 23.1177 16.8926 23.1234ZM20.1918 16.5877C19.6085 16.5877 19.0491 16.3122 18.6366 15.8219C18.2241 15.3317 17.9924 14.6667 17.9924 13.9734C17.9924 13.28 18.2241 12.615 18.6366 12.1248C19.0491 11.6345 19.6085 11.359 20.1918 11.359C20.7752 11.359 21.3346 11.6345 21.7471 12.1248C22.1596 12.615 22.3913 13.28 22.3913 13.9734C22.3913 14.6667 22.1596 15.3317 21.7471 15.8219C21.3346 16.3122 20.7752 16.5877 20.1918 16.5877Z" fill="white"/>
</g>
<defs>
<clipPath id="clip0_2902_699">
<rect width="26.3939" height="31.3717" fill="white" transform="translate(0.396423 0.901825)"/>
</clipPath>
</defs>
</svg>
