<svg width="13" height="15" viewBox="0 0 13 15" fill="none" xmlns="http://www.w3.org/2000/svg">
<path d="M12.9656 5.38501C12.9248 5.24618 12.8496 5.12419 12.7493 5.0341C12.6491 4.94402 12.5281 4.88978 12.4014 4.87808L8.69577 4.53837L7.09221 0.443167C7.04114 0.311269 6.95807 0.19924 6.85304 0.120603C6.748 0.0419653 6.62548 7.93987e-05 6.50027 1.12769e-07C6.37505 -7.91732e-05 6.25249 0.0416516 6.14738 0.120156C6.04227 0.198661 5.9591 0.310584 5.9079 0.442417L4.30434 4.53837L0.598671 4.87808C0.474166 4.88946 0.355139 4.94198 0.255829 5.02936C0.15652 5.11674 0.081133 5.23527 0.0386878 5.37079C-0.00375727 5.5063 -0.0114634 5.65305 0.0164914 5.79349C0.0444462 5.93392 0.106878 6.06209 0.196318 6.16266L2.93478 9.2425L1.96628 14.0809C1.93687 14.2273 1.9463 14.3806 1.99333 14.5208C2.04037 14.661 2.12284 14.7816 2.23005 14.8671C2.33726 14.9525 2.46426 14.9988 2.59456 15C2.72486 15.0011 2.85246 14.9571 2.96078 14.8735L6.50006 12.1514L10.0393 14.8735C10.15 14.9583 10.2806 15.002 10.4135 14.9986C10.5464 14.9953 10.6751 14.945 10.7825 14.8547C10.8899 14.7644 10.9708 14.6383 11.0142 14.4934C11.0576 14.3484 11.0615 14.1917 11.0254 14.0441L9.83652 9.24475L12.7849 6.18366C12.978 5.98268 13.0488 5.66922 12.9656 5.38501Z" fill="#850437"/>
</svg>
