<svg width="13" height="15" viewBox="0 0 13 15" fill="none" xmlns="http://www.w3.org/2000/svg">
<path d="M6.50083 1.66309e-07C6.62368 -9.5774e-05 6.7441 0.0413195 6.84846 0.119559C6.95282 0.197798 7.03695 0.309736 7.09133 0.442704L8.74262 4.48317L12.4365 5.13134C12.558 5.15264 12.6721 5.21453 12.766 5.31003C12.8599 5.40552 12.9298 5.53081 12.9677 5.67173C13.0057 5.81265 13.0103 5.96358 12.9809 6.10746C12.9515 6.25134 12.8894 6.38244 12.8015 6.48593L10.1289 9.63146L10.7598 14.0712C10.7802 14.2172 10.7665 14.3672 10.7202 14.5043C10.6739 14.6414 10.5968 14.7601 10.4976 14.8472C10.3983 14.9342 10.281 14.9862 10.1586 14.9971C10.0363 15.008 9.9139 14.9775 9.80516 14.909L6.50083 12.8119L3.1965 14.909C3.08786 14.9778 2.96545 15.0086 2.84307 14.9979C2.72069 14.9872 2.60323 14.9355 2.50394 14.8484C2.40466 14.7614 2.3275 14.6426 2.28119 14.5055C2.23489 14.3683 2.22127 14.2183 2.24187 14.0723L2.87361 9.6304L0.19926 6.48593C0.111139 6.38248 0.0487834 6.2513 0.0192607 6.10727C-0.0102619 5.96323 -0.00577175 5.81209 0.0322225 5.67098C0.0702167 5.52987 0.140196 5.40442 0.23423 5.30886C0.328264 5.21329 0.442594 5.15143 0.564263 5.13028L4.25817 4.48317L5.91033 0.442704C5.96471 0.309736 6.04885 0.197798 6.1532 0.119559C6.25756 0.0413195 6.37798 -9.5774e-05 6.50083 1.66309e-07ZM6.50083 2.5895L5.28562 5.56028C5.23842 5.67561 5.16873 5.77539 5.08253 5.85103C4.99633 5.92667 4.8962 5.9759 4.79076 5.99451L2.07341 6.4711L4.03881 8.78418C4.11528 8.87406 4.17249 8.98504 4.20551 9.10755C4.23853 9.23007 4.24636 9.36044 4.22833 9.48742L3.76506 12.7537L6.19461 11.2116C6.28905 11.1517 6.39414 11.1204 6.50083 11.1204C6.60752 11.1204 6.71261 11.1517 6.80705 11.2116L9.23748 12.7537L8.77245 9.48742C8.75442 9.36044 8.76226 9.23007 8.79528 9.10755C8.82829 8.98504 8.8855 8.87406 8.96197 8.78418L10.9274 6.47216L8.21091 5.99557C8.10546 5.97696 8.00533 5.92773 7.91913 5.85209C7.83293 5.77645 7.76324 5.67667 7.71605 5.56133L6.50083 2.5895Z" fill="#850437"/>
</svg>
