<svg width="15" height="18" viewBox="0 0 15 18" fill="none" xmlns="http://www.w3.org/2000/svg">
<path d="M8.86479 18C8.71722 18 8.57363 17.9474 8.45557 17.85L5.72743 15.6C5.64272 15.5301 5.57397 15.4396 5.52662 15.3354C5.47926 15.2313 5.45461 15.1164 5.45461 15V10.785L0.669445 4.86525C0.3296 4.44366 0.107706 3.92311 0.0304318 3.36618C-0.0468424 2.80924 0.0237917 2.23961 0.233845 1.72576C0.443897 1.21191 0.784431 0.775694 1.21452 0.469549C1.6446 0.163405 2.14593 0.000355814 2.65826 0L12.3432 0C12.8555 0.000660788 13.3567 0.163979 13.7866 0.47033C14.2165 0.776681 14.5568 1.21303 14.7666 1.72694C14.9765 2.24085 15.0469 2.81046 14.9694 3.36731C14.8919 3.92416 14.6699 4.44457 14.33 4.866L9.54683 10.785V17.25C9.54683 17.4489 9.47497 17.6397 9.34707 17.7803C9.21916 17.921 9.04568 18 8.86479 18ZM6.81868 14.625L8.18276 15.75V10.5C8.18289 10.3164 8.24429 10.1392 8.35531 10.002L13.3124 3.86925C13.4776 3.66381 13.5855 3.41028 13.623 3.13909C13.6605 2.8679 13.626 2.59058 13.5236 2.34042C13.4213 2.09026 13.2555 1.87789 13.0461 1.72882C12.8367 1.57974 12.5926 1.50029 12.3432 1.5H2.65826C2.40895 1.50042 2.16503 1.57991 1.95577 1.72895C1.74651 1.87799 1.58079 2.09025 1.47848 2.34026C1.37618 2.59028 1.34163 2.86744 1.37899 3.13851C1.41634 3.40958 1.52401 3.66304 1.68909 3.8685L6.64681 10.002C6.75758 10.1393 6.81873 10.3165 6.81868 10.5V14.625Z" fill="#850437"/>
</svg>
