<svg width="27" height="32" viewBox="0 0 27 32" fill="none" xmlns="http://www.w3.org/2000/svg">
<path d="M13.6189 0.129028C6.34192 0.129028 0.421997 7.16543 0.421997 15.8149C0.421997 24.4643 6.34192 31.5007 13.6189 31.5007C20.8959 31.5007 26.8159 24.4643 26.8159 15.8149C26.8159 7.16543 20.8959 0.129028 13.6189 0.129028ZM9.21995 27.7936V27.5792C9.21995 24.6957 11.1929 22.3506 13.6189 22.3506C16.045 22.3506 18.0179 24.6957 18.0179 27.5792V27.7936C16.6696 28.4956 15.1828 28.8864 13.6189 28.8864C12.0551 28.8864 10.5682 28.4956 9.21995 27.7936ZM20.1349 26.3388C19.6334 22.6016 16.9028 19.7363 13.6189 19.7363C10.3351 19.7363 7.60553 22.6016 7.10294 26.3388C4.38657 23.9558 2.62149 20.1259 2.62149 15.8149C2.62149 8.60722 7.55494 2.74333 13.6189 2.74333C19.6829 2.74333 24.6164 8.60722 24.6164 15.8149C24.6164 20.1259 22.8513 23.9558 20.1349 26.3388ZM13.6189 6.66479C11.1929 6.66479 9.21995 9.00982 9.21995 11.8934C9.21995 14.777 11.1929 17.122 13.6189 17.122C16.045 17.122 18.0179 14.777 18.0179 11.8934C18.0179 9.00982 16.045 6.66479 13.6189 6.66479ZM13.6189 14.5077C12.4059 14.5077 11.4194 13.3352 11.4194 11.8934C11.4194 10.4516 12.4059 9.2791 13.6189 9.2791C14.8319 9.2791 15.8184 10.4516 15.8184 11.8934C15.8184 13.3352 14.8319 14.5077 13.6189 14.5077Z" fill="white"/>
</svg>
