<svg width="27" height="16" viewBox="0 0 27 16" fill="none" xmlns="http://www.w3.org/2000/svg">
<path opacity="0.35" fill-rule="evenodd" clip-rule="evenodd" d="M3.36069 0.95372H24.2558C25.7743 0.95372 27.0052 2.4168 27.0052 4.2216V12.7181C27.0052 14.5229 25.7743 15.986 24.2558 15.986H3.36069C1.84226 15.986 0.611328 14.5229 0.611328 12.7181V4.2216C0.611328 2.4168 1.84226 0.95372 3.36069 0.95372ZM3.36055 2.26085C2.4495 2.26085 1.71094 3.1387 1.71094 4.22158V12.7181C1.71094 13.801 2.4495 14.6788 3.36055 14.6788H24.2557C25.1668 14.6788 25.9053 13.801 25.9053 12.7181V4.22158C25.9053 3.1387 25.1668 2.26085 24.2557 2.26085H3.36055Z" fill="white"/>
</svg>
