<svg width="93" height="93" viewBox="0 0 93 93" fill="none" xmlns="http://www.w3.org/2000/svg">
<path d="M24 37.56C24 37.57 24 37.59 24 37.6C24 41.69 25.67 45.68 28.59 48.54L35.13 54.96C37.7 57.49 39.18 60.99 39.22 64.59V64.79C39.19 66.2 38.42 67.48 37.18 68.16L29.85 72.19C28.68 72.83 27.95 74.06 27.95 75.4V75.63C27.95 77.65 29.59 79.29 31.61 79.29H43.54H48.33H60.26C62.28 79.29 63.92 77.65 63.92 75.63V75.4C63.92 74.07 63.19 72.84 62.02 72.19L54.69 68.16C53.43 67.47 52.64 66.14 52.64 64.7C52.64 61.06 54.13 57.5 56.73 54.95L63.27 48.53C65.77 46.08 67.35 42.8 67.75 39.33C67.76 39.3 67.76 39.27 67.76 39.23C67.82 38.68 67.86 38.13 67.86 37.58C67.86 36.25 67.69 34.93 67.35 33.64L61.89 13.12C61.88 13.09 61.87 13.06 61.86 13.03C61.84 12.98 61.82 12.92 61.8 12.87C61.78 12.83 61.76 12.79 61.74 12.75C61.71 12.7 61.69 12.66 61.66 12.62C61.63 12.58 61.6 12.55 61.57 12.52C61.54 12.48 61.5 12.44 61.46 12.41C61.43 12.38 61.39 12.35 61.36 12.33C61.32 12.3 61.28 12.27 61.23 12.24C61.19 12.22 61.16 12.2 61.12 12.18C61.07 12.16 61.02 12.13 60.97 12.11C60.93 12.09 60.89 12.08 60.84 12.07C60.79 12.06 60.74 12.04 60.69 12.03C60.64 12.02 60.59 12.02 60.54 12.01C60.51 12.01 60.47 12 60.44 12H31.43C31.39 12 31.36 12.01 31.33 12.01C31.28 12.01 31.23 12.02 31.18 12.03C31.13 12.04 31.09 12.05 31.04 12.06C30.99 12.07 30.95 12.09 30.9 12.1C30.86 12.12 30.81 12.14 30.77 12.16C30.72 12.18 30.68 12.21 30.64 12.23C30.6 12.25 30.57 12.28 30.54 12.3C30.49 12.33 30.45 12.37 30.41 12.41C30.38 12.43 30.36 12.46 30.34 12.49C30.3 12.54 30.26 12.58 30.22 12.64C30.2 12.66 30.19 12.69 30.17 12.72C30.13 12.78 30.1 12.83 30.07 12.9C30.06 12.93 30.05 12.96 30.04 12.98C30.02 13.03 30 13.07 29.99 13.12L24.52 33.66C24.19 34.89 24.02 36.16 24.01 37.44C24.01 37.48 24 37.52 24 37.56ZM53.26 70.8L60.59 74.83C60.8 74.95 60.93 75.17 60.93 75.41V75.64C60.93 76 60.63 76.3 60.27 76.3H48.34H43.54H31.61C31.25 76.3 30.95 76 30.95 75.64V75.41C30.95 75.17 31.08 74.95 31.29 74.83L38.62 70.8C38.83 70.69 39.02 70.55 39.21 70.42V72.68C39.21 73.51 39.88 74.18 40.71 74.18C41.54 74.18 42.21 73.51 42.21 72.68V64.8C42.21 64.77 42.22 64.74 42.22 64.71C42.22 64.67 42.21 64.63 42.21 64.59V64.37C42.21 64.29 42.2 64.22 42.19 64.15C42.11 61.77 41.51 59.44 40.46 57.33C42.4 57.94 44.73 58.44 47.17 58.44C48.46 58.44 49.78 58.29 51.1 57.95C50.16 60.07 49.65 62.37 49.65 64.7C49.66 67.24 51.04 69.58 53.26 70.8ZM61.18 46.4L54.69 52.77C48.28 58.38 38.42 53.39 37.09 52.67L30.7 46.39C28.56 44.29 27.26 41.43 27.05 38.44C34.29 35.21 39.6 34.02 42.82 34.92C43.9 35.22 44.33 35.64 45.05 36.33C45.7 36.95 46.51 37.73 47.93 38.47C50.87 40.02 55.1 40.79 60.79 40.79C61.95 40.79 63.19 40.75 64.46 40.68C63.9 42.84 62.78 44.83 61.18 46.4ZM32.58 15.02H59.31L64.47 34.43C64.74 35.46 64.88 36.53 64.88 37.6C64.88 37.62 64.88 37.64 64.88 37.66C57.66 38.06 52.42 37.45 49.33 35.82C48.29 35.27 47.73 34.74 47.13 34.17C46.3 33.37 45.44 32.55 43.64 32.05C39.92 31 34.56 31.99 27.3 35.07C27.34 34.86 27.37 34.65 27.42 34.44L32.58 15.02Z" fill="#850437"/>
<path d="M41.2956 48.4632C34.0656 45.6632 32.9956 42.2832 32.9556 42.1532C32.7656 41.3632 31.9756 40.8632 31.1856 41.0332C30.3756 41.2032 29.8556 42.0032 30.0356 42.8132C30.1456 43.3132 31.3356 47.8132 40.2156 51.2532C40.3956 51.3232 40.5756 51.3532 40.7556 51.3532C41.3556 51.3532 41.9256 50.9932 42.1556 50.3932C42.4556 49.6332 42.0656 48.7632 41.2956 48.4632ZM44.8356 67.2232C44.0056 67.2232 43.3356 67.8932 43.3356 68.7232V72.9432C43.3356 73.7732 44.0056 74.4432 44.8356 74.4432C45.6656 74.4432 46.3356 73.7732 46.3356 72.9432V68.7232C46.3356 67.8932 45.6656 67.2232 44.8356 67.2232Z" fill="#850437"/>
<path d="M46.47 92.94C72.09 92.94 92.94 72.09 92.94 46.47C92.94 20.85 72.09 0 46.47 0C20.85 0 0 20.85 0 46.47C0 72.09 20.85 92.94 46.47 92.94ZM46.47 3C70.44 3 89.94 22.5 89.94 46.47C89.94 70.44 70.44 89.94 46.47 89.94C22.5 89.94 3 70.44 3 46.47C3 22.5 22.5 3 46.47 3Z" fill="#850437"/>
</svg>
