<svg width="610" height="1217" viewBox="0 0 610 1217" fill="none" xmlns="http://www.w3.org/2000/svg">
<path opacity="0.35" fill-rule="evenodd" clip-rule="evenodd" d="M568.5 518.5H587.5C588.881 518.5 590 519.619 590 521V527.5C590 528.881 588.881 530 587.5 530H568.5C567.119 530 566 528.881 566 527.5V521C566 519.619 567.119 518.5 568.5 518.5ZM568.5 519.5C567.672 519.5 567 520.172 567 521V527.5C567 528.328 567.672 529 568.5 529H587.5C588.328 529 589 528.328 589 527.5V521C589 520.172 588.328 519.5 587.5 519.5H568.5Z" fill="white"/>
<path opacity="0.4" fill-rule="evenodd" clip-rule="evenodd" d="M591 521.8C591.89 522.255 592.5 523.181 592.5 524.25C592.5 525.319 591.89 526.245 591 526.7V521.8Z" fill="white"/>
<path fill-rule="evenodd" clip-rule="evenodd" d="M569 520.5H587C587.552 520.5 588 520.948 588 521.5V527C588 527.552 587.552 528 587 528H569C568.448 528 568 527.552 568 527V521.5C568 520.948 568.448 520.5 569 520.5Z" fill="white"/>
<path d="M219 504H610V1217H219V504Z" fill="white"/>
<path d="M0.5 3.99999C0.5 1.79086 2.29086 0 4.5 0H312.5C314.709 0 316.5 1.79086 316.5 4V309C316.5 311.209 314.709 313 312.5 313H4.5C2.29086 313 0.5 311.209 0.5 309V3.99999Z" fill="#F3F3F3"/>
</svg>
