<svg width="14" height="15" viewBox="0 0 14 15" fill="none" xmlns="http://www.w3.org/2000/svg">
<path d="M13.963 5.38501C13.919 5.24618 13.838 5.12419 13.73 5.0341C13.6221 4.94402 13.4918 4.88978 13.3554 4.87808L9.36467 4.53837L7.63776 0.443167C7.58277 0.311269 7.49331 0.19924 7.38019 0.120603C7.26708 0.0419653 7.13513 7.93987e-05 7.00029 1.12769e-07C6.86544 -7.91732e-05 6.73345 0.0416516 6.62026 0.120156C6.50706 0.198661 6.41749 0.310584 6.36236 0.442417L4.63545 4.53837L0.644722 4.87808C0.51064 4.88946 0.382457 4.94198 0.275509 5.02936C0.16856 5.11674 0.087374 5.23527 0.0416638 5.37079C-0.00404629 5.5063 -0.0123452 5.65305 0.0177599 5.79349C0.0478651 5.93392 0.1151 6.06209 0.21142 6.16266L3.16054 9.2425L2.11753 14.0809C2.08586 14.2273 2.09601 14.3806 2.14666 14.5208C2.19732 14.661 2.28614 14.7816 2.40159 14.8671C2.51705 14.9525 2.65382 14.9988 2.79414 15C2.93447 15.0011 3.07188 14.9571 3.18854 14.8735L7.00006 12.1514L10.8116 14.8735C10.9308 14.9583 11.0714 15.002 11.2145 14.9986C11.3576 14.9953 11.4963 14.945 11.612 14.8547C11.7276 14.7644 11.8147 14.6383 11.8614 14.4934C11.9082 14.3484 11.9124 14.1917 11.8735 14.0441L10.5932 9.24475L13.7684 6.18366C13.9763 5.98268 14.0526 5.66922 13.963 5.38501Z" fill="#850437"/>
</svg>
