<svg width="22" height="36" viewBox="0 0 22 36" fill="none" xmlns="http://www.w3.org/2000/svg">
<path d="M17.2177 32.432H12.7389V27.8865C17.797 27.1704 21.6965 22.8631 21.6905 17.5647L20.4454 4.09159C20.2334 1.80489 18.3165 0.0799408 15.9845 0.0799408H6.50738C4.17542 0.0799408 2.25849 1.80489 2.04649 4.09159L0.79541 17.6986C0.79541 22.8749 4.69496 27.1718 9.75303 27.8865V32.432H5.27422C4.45012 32.432 3.78128 33.0908 3.78128 33.9025C3.78128 34.7143 4.45012 35.3731 5.27422 35.3731H17.2177C18.0418 35.3731 18.7106 34.7143 18.7106 33.9025C18.7106 33.0908 18.0418 32.432 17.2177 32.432ZM6.50738 3.02103H15.9845C16.7624 3.02103 17.4013 3.59602 17.4715 4.35923L17.7567 7.43268H4.73676L5.02042 4.35923C5.09059 3.59602 5.72956 3.02103 6.50738 3.02103ZM3.77531 17.8324L4.46505 10.3738H18.0299L18.7106 17.6986C18.7106 21.7529 15.362 25.0513 11.246 25.0513C7.12994 25.0513 3.78128 21.7529 3.77531 17.8324Z" fill="white"/>
</svg>
