<svg width="24" height="27" viewBox="0 0 24 27" fill="none" xmlns="http://www.w3.org/2000/svg">
<path d="M9.33333 21.6C9.68696 21.6 10.0261 21.4578 10.2761 21.2046C10.5262 20.9514 10.6667 20.608 10.6667 20.25V12.15C10.6667 11.792 10.5262 11.4486 10.2761 11.1954C10.0261 10.9422 9.68696 10.8 9.33333 10.8C8.97971 10.8 8.64057 10.9422 8.39052 11.1954C8.14048 11.4486 8 11.792 8 12.15V20.25C8 20.608 8.14048 20.9514 8.39052 21.2046C8.64057 21.4578 8.97971 21.6 9.33333 21.6ZM22.6667 5.4H17.3333V4.05C17.3333 2.97587 16.9119 1.94574 16.1618 1.18622C15.4116 0.426695 14.3942 0 13.3333 0H10.6667C9.6058 0 8.58838 0.426695 7.83824 1.18622C7.08809 1.94574 6.66667 2.97587 6.66667 4.05V5.4H1.33333C0.979711 5.4 0.640573 5.54223 0.390524 5.79541C0.140476 6.04858 0 6.39196 0 6.75C0 7.10804 0.140476 7.45142 0.390524 7.70459C0.640573 7.95777 0.979711 8.1 1.33333 8.1H2.66667V22.95C2.66667 24.0241 3.08809 25.0543 3.83824 25.8138C4.58839 26.5733 5.6058 27 6.66667 27H17.3333C18.3942 27 19.4116 26.5733 20.1618 25.8138C20.9119 25.0543 21.3333 24.0241 21.3333 22.95V8.1H22.6667C23.0203 8.1 23.3594 7.95777 23.6095 7.70459C23.8595 7.45142 24 7.10804 24 6.75C24 6.39196 23.8595 6.04858 23.6095 5.79541C23.3594 5.54223 23.0203 5.4 22.6667 5.4ZM9.33333 4.05C9.33333 3.69196 9.47381 3.34858 9.72386 3.09541C9.97391 2.84223 10.313 2.7 10.6667 2.7H13.3333C13.687 2.7 14.0261 2.84223 14.2761 3.09541C14.5262 3.34858 14.6667 3.69196 14.6667 4.05V5.4H9.33333V4.05ZM18.6667 22.95C18.6667 23.308 18.5262 23.6514 18.2761 23.9046C18.0261 24.1578 17.687 24.3 17.3333 24.3H6.66667C6.31304 24.3 5.97391 24.1578 5.72386 23.9046C5.47381 23.6514 5.33333 23.308 5.33333 22.95V8.1H18.6667V22.95ZM14.6667 21.6C15.0203 21.6 15.3594 21.4578 15.6095 21.2046C15.8595 20.9514 16 20.608 16 20.25V12.15C16 11.792 15.8595 11.4486 15.6095 11.1954C15.3594 10.9422 15.0203 10.8 14.6667 10.8C14.313 10.8 13.9739 10.9422 13.7239 11.1954C13.4738 11.4486 13.3333 11.792 13.3333 12.15V20.25C13.3333 20.608 13.4738 20.9514 13.7239 21.2046C13.9739 21.4578 14.313 21.6 14.6667 21.6Z" fill="#850437"/>
</svg>
