<svg width="11" height="14" viewBox="0 0 11 14" fill="none" xmlns="http://www.w3.org/2000/svg">
<path d="M10.1663 4.94906C10.1343 4.82147 10.0753 4.70935 9.9967 4.62656C9.91808 4.54377 9.82326 4.49392 9.72393 4.48317L6.81832 4.17096L5.56098 0.40729C5.52093 0.286069 5.4558 0.183111 5.37344 0.110839C5.29108 0.038568 5.19502 7.29709e-05 5.09684 1.0364e-07C4.99866 -7.27636e-05 4.90256 0.0382796 4.82014 0.110429C4.73772 0.182578 4.67251 0.28544 4.63237 0.406601L3.37502 4.17096L0.469416 4.48317C0.371792 4.49362 0.278463 4.54189 0.200595 4.6222C0.122727 4.7025 0.0636161 4.81144 0.030335 4.93598C-0.00294606 5.06053 -0.00898844 5.1954 0.0129308 5.32446C0.0348501 5.45353 0.0838028 5.57132 0.153933 5.66375L2.30115 8.49426L1.54175 12.9409C1.51869 13.0755 1.52608 13.2164 1.56296 13.3452C1.59984 13.4741 1.66451 13.585 1.74858 13.6635C1.83264 13.742 1.93222 13.7846 2.03439 13.7856C2.13656 13.7867 2.2366 13.7462 2.32154 13.6694L5.09667 11.1676L7.8718 13.6694C7.95862 13.7473 8.061 13.7875 8.16518 13.7844C8.26936 13.7813 8.37035 13.7351 8.45455 13.6521C8.53875 13.5691 8.60214 13.4532 8.63618 13.32C8.67022 13.1868 8.67329 13.0428 8.64496 12.9072L7.71279 8.49633L10.0246 5.68305C10.176 5.49834 10.2316 5.21026 10.1663 4.94906Z" fill="#850437"/>
</svg>
