<svg width="11" height="14" viewBox="0 0 11 14" fill="none" xmlns="http://www.w3.org/2000/svg">
<path d="M5.09731 1.52825e-07C5.19364 -8.80088e-05 5.28806 0.0379694 5.36988 0.109865C5.45171 0.18176 5.51768 0.284623 5.56032 0.40681L6.8551 4.11968L9.75149 4.7153C9.84675 4.73487 9.93624 4.79175 10.0098 4.8795C10.0835 4.96725 10.1382 5.08238 10.168 5.21187C10.1978 5.34137 10.2014 5.48006 10.1783 5.61228C10.1553 5.74449 10.1066 5.86496 10.0377 5.96006L7.9421 8.85055L8.43676 12.9303C8.4528 13.0645 8.44205 13.2023 8.40573 13.3283C8.3694 13.4543 8.30894 13.5634 8.23115 13.6434C8.15336 13.7234 8.06132 13.7711 7.96541 13.7811C7.86949 13.7912 7.7735 13.7631 7.68824 13.7002L5.09731 11.7732L2.50638 13.7002C2.4212 13.7634 2.32521 13.7917 2.22925 13.7819C2.1333 13.7721 2.04119 13.7245 1.96334 13.6445C1.88549 13.5646 1.825 13.4554 1.78869 13.3294C1.75238 13.2034 1.7417 13.0655 1.75786 12.9313L2.2532 8.84958L0.15624 5.96006C0.0871439 5.865 0.0382511 5.74446 0.0151024 5.6121C-0.00804639 5.47974 -0.00452564 5.34086 0.0252657 5.21119C0.055057 5.08151 0.109928 4.96624 0.18366 4.87842C0.257393 4.79061 0.347038 4.73376 0.44244 4.71433L3.33883 4.11968L4.6343 0.40681C4.67694 0.284623 4.74291 0.18176 4.82473 0.109865C4.90656 0.0379694 5.00098 -8.80088e-05 5.09731 1.52825e-07ZM5.09731 2.37955L4.14446 5.10946C4.10745 5.21544 4.05281 5.30713 3.98522 5.37664C3.91763 5.44614 3.83912 5.49139 3.75644 5.50848L1.62576 5.94644L3.16684 8.07197C3.2268 8.15456 3.27166 8.25654 3.29754 8.36913C3.32343 8.48171 3.32958 8.60151 3.31544 8.71819L2.95219 11.7196L4.8572 10.3026C4.93125 10.2475 5.01365 10.2188 5.09731 10.2188C5.18097 10.2188 5.26337 10.2475 5.33741 10.3026L7.24312 11.7196L6.87849 8.71819C6.86435 8.60151 6.8705 8.48171 6.89639 8.36913C6.92227 8.25654 6.96713 8.15456 7.02709 8.07197L8.56817 5.94741L6.43818 5.50945C6.3555 5.49236 6.27699 5.44712 6.2094 5.37761C6.14181 5.3081 6.08716 5.21642 6.05016 5.11043L5.09731 2.37955Z" fill="#850437"/>
</svg>
