<svg width="31" height="31" viewBox="0 0 31 31" fill="none" xmlns="http://www.w3.org/2000/svg">
<path d="M15.502 3.43706e-07C15.7949 -0.000197933 16.0821 0.0853937 16.3309 0.247088C16.5798 0.408782 16.7804 0.640121 16.9101 0.914922L20.8478 9.26522L29.6563 10.6048C29.946 10.6488 30.2182 10.7767 30.442 10.9741C30.6659 11.1714 30.8325 11.4303 30.923 11.7216C31.0136 12.0128 31.0245 12.3247 30.9544 12.6221C30.8844 12.9194 30.7362 13.1904 30.5267 13.4043L24.1536 19.905L25.658 29.0805C25.7067 29.3822 25.674 29.6922 25.5636 29.9755C25.4531 30.2588 25.2692 30.5042 25.0326 30.6842C24.7961 30.8641 24.5162 30.9714 24.2245 30.9939C23.9328 31.0165 23.6408 30.9534 23.3815 30.8118L15.502 26.478L7.62242 30.8118C7.36337 30.9541 7.07145 31.0178 6.77963 30.9957C6.4878 30.9736 6.2077 30.8666 5.97094 30.6868C5.73418 30.5069 5.5502 30.2614 5.43977 29.978C5.32934 29.6945 5.29687 29.3844 5.34601 29.0827L6.85246 19.9028L0.475159 13.4043C0.265023 13.1905 0.11633 12.9194 0.0459294 12.6217C-0.0244708 12.324 -0.0137634 12.0117 0.0768382 11.72C0.16744 11.4284 0.334313 11.1691 0.558549 10.9716C0.782784 10.7741 1.05542 10.6463 1.34555 10.6026L10.1541 9.26522L14.0939 0.914922C14.2235 0.640121 14.4242 0.408782 14.673 0.247088C14.9219 0.0853937 15.209 -0.000197933 15.502 3.43706e-07ZM15.502 5.35163L12.6042 11.4912C12.4916 11.7296 12.3254 11.9358 12.1199 12.0921C11.9143 12.2484 11.6756 12.3502 11.4241 12.3886L4.94429 13.3736L9.63102 18.154C9.81337 18.3397 9.94979 18.5691 10.0285 18.8223C10.1073 19.0755 10.1259 19.3449 10.083 19.6073L8.97822 26.3576L14.7718 23.1707C14.997 23.0469 15.2476 22.9821 15.502 22.9821C15.7564 22.9821 16.007 23.0469 16.2322 23.1707L22.0278 26.3576L20.9189 19.6073C20.8759 19.3449 20.8946 19.0755 20.9733 18.8223C21.0521 18.5691 21.1885 18.3397 21.3709 18.154L26.0576 13.3758L19.5799 12.3908C19.3284 12.3524 19.0896 12.2506 18.8841 12.0943C18.6785 11.938 18.5123 11.7318 18.3998 11.4934L15.502 5.35163Z" fill="white"/>
</svg>
