<svg width="13" height="13" viewBox="0 0 13 13" fill="none" xmlns="http://www.w3.org/2000/svg">
<path fill-rule="evenodd" clip-rule="evenodd" d="M12.4065 3.75145C10.7329 1.81833 8.6185 0.763672 6.40747 0.763672C4.1899 0.763672 2.06965 1.82462 0.393974 3.7682L0.251665 3.93326C0.136582 4.06674 0.129976 4.30401 0.237313 4.44876L1.22425 5.77962C1.32005 5.9088 1.47322 5.91762 1.57683 5.79991L1.6991 5.66101C3.01875 4.16178 4.67561 3.34574 6.40747 3.34574C8.13345 3.34574 9.78501 4.1562 11.1027 5.64611L11.2249 5.7843C11.3286 5.90148 11.4814 5.89244 11.577 5.76349L12.5641 4.43243C12.6716 4.28748 12.6648 4.04981 12.5494 3.91646L12.4065 3.75145ZM6.40747 4.87275C7.80067 4.87275 9.13833 5.49773 10.228 6.65512L10.382 6.81869C10.5048 6.94909 10.5156 7.19481 10.4051 7.34384L9.41479 8.67924C9.3232 8.80275 9.17827 8.81694 9.0744 8.71256L8.95368 8.59124C8.2177 7.85158 7.33024 7.45483 6.40747 7.45483C5.47903 7.45483 4.58638 7.85652 3.84795 8.60466L3.72711 8.72709C3.62324 8.83233 3.47778 8.81847 3.38591 8.69459L2.39598 7.35969C2.2857 7.21097 2.29617 6.96587 2.41838 6.83522L2.57151 6.67152C3.66381 5.50381 5.00756 4.87275 6.40747 4.87275ZM6.40747 8.98197C6.96752 8.98197 7.51171 9.18097 7.9912 9.56043L8.18548 9.71418C8.33277 9.83074 8.35867 10.1035 8.23791 10.2664L6.57914 12.5032C6.47725 12.6406 6.31206 12.6406 6.21017 12.5032L4.56207 10.2807C4.44183 10.1186 4.4669 9.84722 4.61294 9.72979L4.80504 9.57534C5.28893 9.18628 5.84003 8.98197 6.40747 8.98197Z" fill="white"/>
</svg>
