<svg width="16" height="14" viewBox="0 0 16 14" fill="none" xmlns="http://www.w3.org/2000/svg">
<path fill-rule="evenodd" clip-rule="evenodd" d="M15.6665 3.90517C13.5648 1.77141 10.9097 0.6073 8.13317 0.6073C5.34844 0.6073 2.68592 1.77836 0.58169 3.92365L0.402985 4.10585C0.258468 4.25318 0.250173 4.51508 0.384962 4.67485L1.62431 6.14384C1.74461 6.28643 1.93696 6.29616 2.06707 6.16623L2.22061 6.01291C3.87776 4.35808 5.95837 3.45736 8.13317 3.45736C10.3006 3.45736 12.3745 4.35192 14.0292 5.99647L14.1827 6.14901C14.3128 6.27834 14.5048 6.26837 14.6249 6.12603L15.8644 4.65682C15.9994 4.49683 15.9908 4.23449 15.8459 4.0873L15.6665 3.90517ZM8.13317 5.14284C9.88268 5.14284 11.5625 5.83268 12.9309 7.11019L13.1242 7.29073C13.2784 7.43467 13.292 7.7059 13.1532 7.87039L11.9096 9.34438C11.7946 9.48072 11.6126 9.49638 11.4822 9.38116L11.3306 9.24725C10.4064 8.43083 9.29193 7.99289 8.13317 7.99289C6.96727 7.99289 5.84632 8.43627 4.91904 9.26206L4.76729 9.3972C4.63686 9.51336 4.45419 9.49807 4.33883 9.36133L3.09572 7.88788C2.95723 7.72373 2.97038 7.45319 3.12385 7.30898L3.31615 7.12829C4.6878 5.83939 6.37522 5.14284 8.13317 5.14284ZM8.13315 9.67854C8.83644 9.67854 9.5198 9.8982 10.1219 10.317L10.3659 10.4867C10.5508 10.6154 10.5834 10.9165 10.4317 11.0962L8.34872 13.5652C8.22078 13.7169 8.01334 13.7169 7.88539 13.5652L5.81577 11.1121C5.66479 10.9332 5.69626 10.6336 5.87966 10.504L6.12089 10.3335C6.72854 9.90406 7.42058 9.67854 8.13315 9.67854Z" fill="#E2E2E2"/>
</svg>
